<?xml version="1.0" encoding="utf-8"?>
<!-- Generator: Adobe Illustrator 18.1.1, SVG Export Plug-In . SVG Version: 6.00 Build 0)  -->
<svg version="1.1" id="Layer_1" xmlns="http://www.w3.org/2000/svg" xmlns:xlink="http://www.w3.org/1999/xlink" x="0px" y="0px"
	 width="1280px" height="1280px" viewBox="0 0 1280 1280" enable-background="new 0 0 1280 1280" xml:space="preserve">
<g id="Layer_2" display="none">
	<g display="inline">
		<g>
			<path fill="#E6E7E8" d="M1177.7,62.6v1164H102.3V62.6H1177.7 M1230.4,9.8h-52.7H102.3H49.6v52.7v1164v52.7h52.7h1075.3h52.7
				v-52.7V62.6L1230.4,9.8L1230.4,9.8z"/>
		</g>
		<g>
			<path fill="#E6E7E8" d="M1177.7,464.2v763.1H102.3V464.2H1177.7 M1184,457.8h-6.3H102.3H96v6.3v763.1v6.3h6.3h1075.3h6.3v-6.3
				v-763L1184,457.8L1184,457.8z"/>
		</g>
		<g>
			<path fill="#E6E7E8" d="M461,62.6v1164H102.3V62.6H461 M467.3,56.3H461H102.3H96v6.3v1164v6.3h6.3H461h6.3v-6.3V62.6V56.3
				L467.3,56.3z"/>
		</g>
		<g>
			<path fill="#E6E7E8" d="M1177.7,62.6v1164H819V62.6H1177.7 M1184,56.3h-6.3H819h-6.3v6.3v1164v6.3h6.3h358.7h6.3v-6.3V62.6V56.3
				L1184,56.3z"/>
		</g>
		<g>
			<path fill="#E6E7E8" d="M1177.7,62.6v763.1H102.3V62.6H1177.7 M1184,56.3h-6.3H102.3H96v6.3v763.1v6.3h6.3h1075.3h6.3v-6.3V62.6
				L1184,56.3L1184,56.3z"/>
		</g>
	</g>
</g>
<g id="Layer_1_1_">
	<circle fill="none" stroke="#382F2E" stroke-width="50" stroke-miterlimit="10" cx="639.6" cy="533.8" r="123.1"/>
	<path fill="none" stroke="#382F2E" stroke-width="50" stroke-miterlimit="10" d="M639.6,251.1c-153.3,0-277.1,124.5-277.1,277.1
		c0,3.5,0,6.3,0,9.8c0.7,28.8,6.3,57,16.2,83c59.1,194.1,260.9,448,260.9,448s201.8-253.9,260.9-448c9.1-26,14.8-54.2,16.2-83
		c0-3.5,0-7,0-9.8C917.5,374.9,793,251.1,639.6,251.1z"/>
</g>
</svg>
